<?xml version="1.0" encoding="UTF-8"?>
<svg width="80px" height="80px" viewBox="0 0 80 80" version="1.1" xmlns="http://www.w3.org/2000/svg" xmlns:xlink="http://www.w3.org/1999/xlink">
    <g id="Page-1" stroke="none" stroke-width="1" fill="none" fill-rule="evenodd">
        <g id="Content-#3" transform="translate(-320.000000, -246.000000)" fill="#FFFFFF">
            <g id="Icon" transform="translate(320.000000, 246.000000)">
                <path d="M16.9955556,80 L16.9955556,80 C14.8046132,80 12.6748805,79.5697328 10.6639662,78.7181997 C10.1112799,78.4841632 9.71341772,77.9926864 9.59819972,77.4057947 C9.48298172,76.818903 9.66841069,76.2122082 10.0914768,75.7891421 L16.4554712,69.426948 L16.4554712,64.3339522 L11.3642757,64.3339522 L5.00028129,70.6961463 C4.57721519,71.1192124 3.97412096,71.3082419 3.38362869,71.1894233 C2.79673699,71.0760056 2.30345992,70.6763432 2.07122363,70.1236568 C-0.515780591,64.0099015 0.841631505,57.0338115 5.52776371,52.3476793 C8.58284107,49.2908017 12.6478762,47.6075387 16.9721519,47.6075387 C18.7490295,47.6075387 20.486301,47.8901828 22.1497609,48.4518706 L48.4392686,22.1623629 C46.4733615,16.3420534 47.9387904,9.93305204 52.3332771,5.5385654 C55.3901547,2.48348805 59.4551899,0.800225035 63.7794655,0.800225035 C65.9704079,0.800225035 68.1001406,1.23049226 70.1110549,2.08202532 C70.6637412,2.31606188 71.0616034,2.80753868 71.1768214,3.39443038 C71.2920394,3.98132208 71.1066104,4.58801688 70.6835443,5.01108298 L64.3195499,11.3768776 L64.3195499,16.4698734 L69.4125457,16.4698734 L75.7747398,10.105879 C76.1978059,9.68281294 76.7972996,9.4937834 77.3913924,9.61260197 C77.9782841,9.72601969 78.4715612,10.1256821 78.7037975,10.6783685 C81.2908017,16.7921238 79.9333896,23.7682138 75.2472574,28.454346 C72.19218,31.5094233 68.1271449,33.1926864 63.8028692,33.1926864 C62.0259916,33.1926864 60.2887201,32.9100422 58.6252602,32.3483544 L32.3357525,58.6378622 C34.3016596,64.4581716 32.8344304,70.867173 28.4399437,75.2616596 C25.3848664,78.316737 21.3198312,80 16.9955556,80 L16.9955556,80 Z M14.7686076,76.205007 C15.4977215,76.3346273 16.2412377,76.3994374 16.9955556,76.3994374 C20.358481,76.3994374 23.5179747,75.0906329 25.894346,72.7160619 C29.5399156,69.0722925 30.5948805,63.6426442 28.582166,58.8881013 C28.2959212,58.2129958 28.4489451,57.4316737 28.9674262,56.9131927 L56.9005907,28.9800281 C57.420872,28.4615471 58.2039944,28.3067229 58.8754993,28.5947679 C60.4399437,29.2554712 62.0980028,29.5921238 63.8028692,29.5921238 C67.1657947,29.5921238 70.3252883,28.2833193 72.7016596,25.906948 C75.6703235,22.9382841 76.921519,18.7850352 76.1942053,14.7758087 L71.4288608,19.5411533 C71.0904079,19.8796062 70.6331364,20.0686357 70.1560619,20.0686357 L62.5192686,20.0686357 C61.5255134,20.0686357 60.7189873,19.26391 60.7189873,18.2683544 L60.7189873,10.6315612 C60.7189873,10.1526864 60.9080169,9.69541491 61.2464698,9.35876231 L66.0100141,4.59701828 C65.2790999,4.46739803 64.5355837,4.4025879 63.7812658,4.4025879 C60.4183404,4.4025879 57.2570464,5.71139241 54.8806751,8.08596343 C51.2369058,11.7315331 50.1819409,17.1593812 52.1946554,21.9139241 C52.4809001,22.5890295 52.3278762,23.3703516 51.8093952,23.8888326 L23.8744304,51.8219972 C23.3559494,52.3404782 22.572827,52.4935021 21.8995218,52.2072574 C20.3350774,51.5465541 18.6770183,51.2099015 16.9721519,51.2099015 C13.6092264,51.2099015 10.4479325,52.518706 8.07336146,54.8950774 C5.10469761,57.8637412 3.85350211,62.0169902 4.58081575,66.0262166 L9.34616034,61.260872 C9.68461322,60.9224191 10.1418847,60.7333896 10.6189592,60.7333896 L18.2575527,60.7333896 C19.251308,60.7333896 20.057834,61.5381153 20.057834,62.5336709 L20.057834,70.1722644 C20.057834,70.6511392 19.8688045,71.1084107 19.5303516,71.4450633 L14.7686076,76.205007 L14.7686076,76.205007 Z" id="Shape"></path>
                <path d="M72.7988748,80 C70.8761744,80 69.0668917,79.251083 67.705879,77.8900703 L51.1576934,61.3400844 C50.4537834,60.6361744 50.4537834,59.4983966 51.1576934,58.7944866 L58.7944866,51.1576934 C59.4983966,50.4537834 60.6361744,50.4537834 61.3400844,51.1576934 L77.8900703,67.7076793 C79.251083,69.0668917 80,70.8761744 80,72.7988748 C80,74.7233755 79.2492827,76.5326582 77.8900703,77.8918706 C76.5308579,79.251083 74.7233755,80 72.7988748,80 L72.7988748,80 Z M54.9778903,60.0672855 L70.2532771,75.3444726 C71.6124895,76.703685 73.9834599,76.7054852 75.3444726,75.3444726 C76.0249789,74.6639662 76.3994374,73.760225 76.3994374,72.7988748 C76.3994374,71.8375246 76.0249789,70.9319831 75.3462729,70.2532771 L60.0690858,54.97609 L54.9778903,60.0672855 L54.9778903,60.0672855 Z" id="Shape"></path>
                <polygon id="Rectangle-path" points="16.5908833 14.0438799 37.1329438 34.5859404 34.586986 37.1318982 14.0449255 16.5898377"></polygon>
                <path d="M48.6102954,65.6877637 C48.1494233,65.6877637 47.6885513,65.5113361 47.3374965,65.1602813 C46.6335865,64.4563713 46.6335865,63.3185935 47.3374965,62.6146835 L62.6128833,47.3392968 C63.3167932,46.6353868 64.454571,46.6353868 65.158481,47.3392968 C65.862391,48.0432068 65.862391,49.1809845 65.158481,49.8848945 L49.8830942,65.1602813 C49.5320394,65.5113361 49.0711674,65.6877637 48.6102954,65.6877637 L48.6102954,65.6877637 Z" id="Shape"></path>
                <path d="M12.7720956,19.6635724 C12.3112236,19.6635724 11.8503516,19.4871449 11.4992968,19.13609 L1.31510549,8.95189873 C0.976652602,8.61524613 0.787623066,8.15797468 0.787623066,7.67909986 C0.787623066,7.20022504 0.976652602,6.74295359 1.31510549,6.40630098 L6.40630098,1.31510549 C7.11021097,0.611195499 8.24798875,0.611195499 8.95189873,1.31510549 L19.13609,11.4992968 C19.4745429,11.8377496 19.6635724,12.2932208 19.6635724,12.7720956 C19.6635724,13.2509705 19.4745429,13.7082419 19.13609,14.0448945 L14.0448945,19.13609 C13.6938397,19.4889451 13.2329677,19.6635724 12.7720956,19.6635724 L12.7720956,19.6635724 Z M5.13350211,7.67909986 L12.7720956,15.3176934 L15.3176934,12.7720956 L7.67909986,5.13350211 L5.13350211,7.67909986 L5.13350211,7.67909986 Z" id="Shape"></path>
                <polygon id="Rectangle-path" points="44.7734477 42.2236999 57.9882416 55.4384939 55.4422838 57.9844517 42.2274898 44.7696577"></polygon>
            </g>
        </g>
    </g>
</svg>
